<svg width="192" height="106" viewBox="0 0 192 106" fill="none" xmlns="http://www.w3.org/2000/svg">
<path d="M186.331 22.0733L180.012 8.14651C177.736 3.19453 172.791 0.0149697 167.341 0H76.7379C70.0464 0.00698587 64.6244 5.42901 64.6174 12.1205V42.4101C64.6224 46.0767 67.5934 49.0477 71.26 49.0527H81.1729C82.14 53.8161 86.3275 57.2381 91.1876 57.2381C96.0478 57.2381 100.235 53.8161 101.202 49.0527H150.664C151.631 53.8161 155.819 57.2381 160.679 57.2381C165.539 57.2381 169.727 53.8161 170.694 49.0527H181.568C184.704 49.0497 187.246 46.5078 187.249 43.3712V26.3047C187.25 24.8447 186.937 23.4016 186.331 22.0733ZM181.9 22.207L162.723 20.6023V12.0177L176.503 10.2952L181.9 22.207ZM91.1876 53.1404C87.8015 53.1404 85.0561 50.395 85.0561 47.0088C85.0561 43.6227 87.8015 40.8772 91.1876 40.8772C94.5738 40.8772 97.3192 43.6227 97.3192 47.0088C97.3192 50.395 94.5738 53.1404 91.1876 53.1404ZM160.679 53.1404C157.293 53.1404 154.547 50.395 154.547 47.0088C154.547 43.6227 157.293 40.8772 160.679 40.8772C164.065 40.8772 166.811 43.6227 166.811 47.0088C166.811 50.395 164.065 53.1404 160.679 53.1404ZM181.568 44.965H170.694C169.727 40.2016 165.539 36.7795 160.679 36.7795C155.819 36.7795 151.631 40.2016 150.664 44.965H101.202C100.235 40.2016 96.0478 36.7795 91.1876 36.7795C86.3275 36.7795 82.14 40.2016 81.1729 44.965H71.26C69.8498 44.963 68.7072 43.8203 68.7052 42.4101V12.1205C68.7101 7.68544 72.3029 4.09271 76.7379 4.08772H167.341C169.719 4.09271 172.013 4.95696 173.802 6.5198L160.552 8.17545H80.9683C79.8396 8.17545 78.9245 9.0906 78.9245 10.2193V22.4825C78.9245 23.6112 79.8396 24.5263 80.9683 24.5263H160.593L183.161 26.4065V43.3712C183.16 44.2504 182.447 44.964 181.568 44.965ZM83.0122 20.4386V12.2632H97.3192V20.4386H83.0122ZM101.407 12.2632H117.758V20.4386H101.407V12.2632ZM121.846 12.2632H136.153V20.4386H121.846V12.2632ZM140.24 12.2632H158.635V20.4386H140.24V12.2632Z" fill="#6AB04C"/>
<rect x="33.7036" y="20.4386" width="25.5483" height="3.83224" rx="1.91612" fill="#6AB04C"/>
<rect x="25.7837" y="9.70825" width="51.0966" height="3.83224" rx="1.91612" fill="#6AB04C"/>
<rect x="39.0688" y="32.4464" width="51.0966" height="3.83224" rx="1.91612" fill="#6AB04C"/>
<path d="M13.8047 91.181C11.5902 91.181 9.4907 90.8934 7.50628 90.3183C5.55062 89.7143 3.95446 88.909 2.71779 87.9024C2.05632 87.4135 1.72558 86.7233 1.72558 85.8317C1.72558 85.2278 1.89814 84.7101 2.24326 84.2787C2.61713 83.8186 3.04853 83.5885 3.53744 83.5885C4.05512 83.5885 4.64469 83.7898 5.30616 84.1924C6.54283 85.084 7.83702 85.7311 9.18872 86.1337C10.5404 86.5364 12.0359 86.7377 13.6752 86.7377C15.7747 86.7377 17.3852 86.3782 18.5069 85.6592C19.6285 84.9114 20.1893 83.8329 20.1893 82.4237C20.1893 81.3308 19.6573 80.4968 18.5931 79.9216C17.5578 79.3177 15.8178 78.7425 13.3733 78.196C10.8424 77.6496 8.78609 77.0169 7.2043 76.2979C5.62252 75.5789 4.42899 74.6586 3.62372 73.537C2.81845 72.4153 2.41581 70.9917 2.41581 69.2662C2.41581 67.483 2.91911 65.8869 3.9257 64.4777C4.93229 63.0684 6.32713 61.9756 8.11023 61.1991C9.9221 60.3938 11.9497 59.9911 14.1929 59.9911C18.3055 59.9911 21.6561 61.084 24.2444 63.2698C24.6183 63.5861 24.8771 63.9025 25.0209 64.2188C25.1935 64.5064 25.2798 64.8803 25.2798 65.3405C25.2798 65.9444 25.0928 66.4765 24.719 66.9366C24.3738 67.368 23.9568 67.5837 23.4679 67.5837C23.1803 67.5837 22.9071 67.5406 22.6483 67.4543C22.4182 67.368 22.1018 67.2098 21.6992 66.9798C20.52 66.117 19.3697 65.4843 18.248 65.0816C17.1552 64.6502 15.8035 64.4345 14.1929 64.4345C12.2373 64.4345 10.6842 64.8372 9.53384 65.6424C8.41221 66.4189 7.8514 67.5118 7.8514 68.921C7.8514 70.1002 8.35469 71.0061 9.36128 71.6388C10.3679 72.2715 12.0791 72.8611 14.4949 73.4075C17.0545 73.9827 19.1252 74.6298 20.707 75.3488C22.3175 76.0391 23.5398 76.9306 24.3738 78.0235C25.2366 79.1163 25.668 80.4824 25.668 82.1217C25.668 83.9048 25.1647 85.4866 24.1581 86.8671C23.1803 88.2188 21.7855 89.2829 19.9736 90.0594C18.1905 90.8072 16.1342 91.181 13.8047 91.181ZM39.4595 69.1799C42.393 69.1799 44.5644 69.9132 45.9736 71.38C47.4116 72.818 48.1306 75.0181 48.1306 77.9803V88.5064C48.1306 89.2829 47.9005 89.9012 47.4404 90.3614C46.9802 90.7928 46.3475 91.0085 45.5422 91.0085C44.7945 91.0085 44.1761 90.7784 43.6872 90.3183C43.2271 89.8581 42.997 89.2541 42.997 88.5064V87.5573C42.5081 88.6789 41.7316 89.5561 40.6674 90.1888C39.6321 90.8215 38.4242 91.1379 37.0437 91.1379C35.6345 91.1379 34.3547 90.8503 33.2043 90.2751C32.0539 89.6999 31.148 88.909 30.4865 87.9024C29.825 86.8958 29.4943 85.7742 29.4943 84.5376C29.4943 82.9845 29.8826 81.7622 30.6591 80.8707C31.4643 79.9791 32.7585 79.332 34.5416 78.9294C36.3247 78.5268 38.7837 78.3255 41.9185 78.3255H42.997V77.3332C42.997 75.924 42.695 74.9031 42.0911 74.2703C41.4871 73.6089 40.5093 73.2781 39.1576 73.2781C38.3235 73.2781 37.4751 73.4075 36.6123 73.6664C35.7495 73.8965 34.7286 74.2416 33.5494 74.7017C32.8017 75.0756 32.2552 75.2625 31.9101 75.2625C31.3924 75.2625 30.961 75.0756 30.6159 74.7017C30.2996 74.3279 30.1414 73.8389 30.1414 73.235C30.1414 72.7461 30.2564 72.3291 30.4865 71.9839C30.7454 71.6101 31.1624 71.265 31.7376 70.9486C32.7442 70.4022 33.9377 69.9708 35.3181 69.6544C36.7274 69.3381 38.1078 69.1799 39.4595 69.1799ZM38.1222 87.2553C39.5602 87.2553 40.725 86.7808 41.6165 85.8317C42.5368 84.8539 42.997 83.6029 42.997 82.0786V81.1727H42.2205C40.2936 81.1727 38.7981 81.2589 37.734 81.4315C36.6698 81.6041 35.9077 81.906 35.4476 82.3374C34.9874 82.7688 34.7573 83.3584 34.7573 84.1062C34.7573 85.0265 35.0737 85.7886 35.7064 86.3926C36.3679 86.9677 37.1731 87.2553 38.1222 87.2553ZM64.2665 64.3914C62.9435 64.4777 61.9801 64.8803 61.3761 65.5993C60.7722 66.3183 60.4702 67.3536 60.4702 68.7053V69.6975H64.137C65.7476 69.6975 66.5529 70.3734 66.5529 71.7251C66.5529 73.0768 65.7476 73.7527 64.137 73.7527H60.4702V88.4633C60.4702 89.2973 60.2113 89.93 59.6937 90.3614C59.2048 90.7928 58.572 91.0085 57.7955 91.0085C57.019 91.0085 56.3719 90.7928 55.8542 90.3614C55.3366 89.93 55.0777 89.2973 55.0777 88.4633V73.7527H52.9208C51.3102 73.7527 50.5049 73.0768 50.5049 71.7251C50.5049 70.3734 51.3102 69.6975 52.9208 69.6975H55.0777V69.3956C55.0777 66.6922 55.7824 64.5783 57.1916 63.0541C58.6296 61.501 60.6427 60.6239 63.2311 60.4225L64.3527 60.3363C65.5031 60.25 66.3084 60.3794 66.7686 60.7245C67.2575 61.0409 67.5019 61.5442 67.5019 62.2344C67.5019 63.4711 66.7973 64.1613 65.3881 64.3051L64.2665 64.3914ZM78.0071 69.1799C80.9406 69.1799 83.1119 69.9132 84.5212 71.38C85.9591 72.818 86.6781 75.0181 86.6781 77.9803V88.5064C86.6781 89.2829 86.4481 89.9012 85.9879 90.3614C85.5277 90.7928 84.895 91.0085 84.0898 91.0085C83.342 91.0085 82.7237 90.7784 82.2348 90.3183C81.7746 89.8581 81.5445 89.2541 81.5445 88.5064V87.5573C81.0556 88.6789 80.2791 89.5561 79.215 90.1888C78.1796 90.8215 76.9717 91.1379 75.5913 91.1379C74.182 91.1379 72.9022 90.8503 71.7518 90.2751C70.6015 89.6999 69.6955 88.909 69.0341 87.9024C68.3726 86.8958 68.0418 85.7742 68.0418 84.5376C68.0418 82.9845 68.4301 81.7622 69.2066 80.8707C70.0119 79.9791 71.3061 79.332 73.0892 78.9294C74.8723 78.5268 77.3312 78.3255 80.466 78.3255H81.5445V77.3332C81.5445 75.924 81.2425 74.9031 80.6386 74.2703C80.0346 73.6089 79.0568 73.2781 77.7051 73.2781C76.8711 73.2781 76.0227 73.4075 75.1599 73.6664C74.2971 73.8965 73.2761 74.2416 72.097 74.7017C71.3492 75.0756 70.8028 75.2625 70.4577 75.2625C69.94 75.2625 69.5086 75.0756 69.1635 74.7017C68.8471 74.3279 68.6889 73.8389 68.6889 73.235C68.6889 72.7461 68.804 72.3291 69.0341 71.9839C69.2929 71.6101 69.7099 71.265 70.2851 70.9486C71.2917 70.4022 72.4852 69.9708 73.8657 69.6544C75.2749 69.3381 76.6554 69.1799 78.0071 69.1799ZM76.6698 87.2553C78.1077 87.2553 79.2725 86.7808 80.1641 85.8317C81.0844 84.8539 81.5445 83.6029 81.5445 82.0786V81.1727H80.768C78.8411 81.1727 77.3456 81.2589 76.2815 81.4315C75.2174 81.6041 74.4553 81.906 73.9951 82.3374C73.5349 82.7688 73.3049 83.3584 73.3049 84.1062C73.3049 85.0265 73.6212 85.7886 74.2539 86.3926C74.9154 86.9677 75.7207 87.2553 76.6698 87.2553ZM103.936 69.2662C104.683 69.2086 105.273 69.3668 105.704 69.7407C106.136 70.1146 106.351 70.6754 106.351 71.4231C106.351 72.1996 106.165 72.7748 105.791 73.1487C105.417 73.5226 104.741 73.767 103.763 73.8821L102.469 74.0115C100.772 74.1841 99.521 74.7593 98.7158 75.7371C97.9392 76.7149 97.551 77.9372 97.551 79.4039V88.4633C97.551 89.2973 97.2921 89.9444 96.7745 90.4045C96.2568 90.8359 95.6097 91.0516 94.8332 91.0516C94.0567 91.0516 93.4096 90.8359 92.8919 90.4045C92.403 89.9444 92.1585 89.2973 92.1585 88.4633V71.7682C92.1585 70.963 92.403 70.3446 92.8919 69.9132C93.4096 69.4818 94.0423 69.2662 94.7901 69.2662C95.5378 69.2662 96.1418 69.4818 96.6019 69.9132C97.0621 70.3159 97.2921 70.9055 97.2921 71.682V73.4075C97.8386 72.1421 98.6439 71.1643 99.708 70.4741C100.801 69.7838 102.009 69.3956 103.332 69.3093L103.936 69.2662ZM111.348 91.0516C110.571 91.0516 109.924 90.8359 109.406 90.4045C108.917 89.9444 108.673 89.2973 108.673 88.4633V71.8114C108.673 70.9774 108.917 70.3446 109.406 69.9132C109.924 69.4818 110.571 69.2662 111.348 69.2662C112.124 69.2662 112.771 69.4818 113.289 69.9132C113.806 70.3446 114.065 70.9774 114.065 71.8114V88.4633C114.065 89.2973 113.806 89.9444 113.289 90.4045C112.771 90.8359 112.124 91.0516 111.348 91.0516ZM111.348 65.4267C110.37 65.4267 109.593 65.1679 109.018 64.6502C108.443 64.1038 108.155 63.3992 108.155 62.5364C108.155 61.6736 108.443 60.9834 109.018 60.4657C109.593 59.948 110.37 59.6892 111.348 59.6892C112.297 59.6892 113.059 59.948 113.634 60.4657C114.238 60.9834 114.54 61.6736 114.54 62.5364C114.54 63.3992 114.252 64.1038 113.677 64.6502C113.102 65.1679 112.325 65.4267 111.348 65.4267ZM138.823 75.09C140.578 75.5789 141.929 76.4705 142.879 77.7646C143.856 79.0588 144.345 80.6406 144.345 82.51C144.345 85.0984 143.411 87.1259 141.541 88.5927C139.701 90.0594 137.155 90.7928 133.905 90.7928H122.775C121.941 90.7928 121.28 90.5627 120.791 90.1026C120.331 89.6424 120.101 88.9953 120.101 88.1613V63.0109C120.101 62.1769 120.331 61.5298 120.791 61.0696C121.28 60.6095 121.941 60.3794 122.775 60.3794H133.474C136.638 60.3794 139.111 61.084 140.894 62.4932C142.706 63.8737 143.612 65.815 143.612 68.3171C143.612 69.9276 143.18 71.3225 142.318 72.5016C141.484 73.6808 140.319 74.5436 138.823 75.09ZM125.536 73.1919H132.568C136.393 73.1919 138.306 71.7682 138.306 68.921C138.306 67.483 137.831 66.4189 136.882 65.7287C135.933 65.0385 134.495 64.6934 132.568 64.6934H125.536V73.1919ZM133.302 86.4788C135.315 86.4788 136.781 86.1193 137.702 85.4003C138.622 84.6813 139.082 83.5597 139.082 82.0355C139.082 80.5112 138.608 79.3752 137.659 78.6274C136.738 77.8797 135.286 77.5058 133.302 77.5058H125.536V86.4788H133.302ZM165.726 69.2662C166.56 69.2662 167.221 69.4962 167.71 69.9564C168.199 70.4165 168.444 71.0349 168.444 71.8114V88.5495C168.444 89.2973 168.185 89.9012 167.667 90.3614C167.178 90.8215 166.531 91.0516 165.726 91.0516C164.949 91.0516 164.331 90.8359 163.871 90.4045C163.411 89.9731 163.181 89.3836 163.181 88.6358V87.5573C162.519 88.7077 161.628 89.5993 160.506 90.232C159.384 90.8359 158.119 91.1379 156.71 91.1379C151.533 91.1379 148.945 88.2332 148.945 82.4237V71.8114C148.945 71.0349 149.189 70.4165 149.678 69.9564C150.167 69.4962 150.814 69.2662 151.619 69.2662C152.453 69.2662 153.115 69.4962 153.604 69.9564C154.093 70.4165 154.337 71.0349 154.337 71.8114V82.4669C154.337 83.9624 154.639 85.0696 155.243 85.7886C155.847 86.5076 156.796 86.8671 158.09 86.8671C159.586 86.8671 160.779 86.3782 161.671 85.4003C162.591 84.3938 163.051 83.0708 163.051 81.4315V71.8114C163.051 71.0349 163.296 70.4165 163.785 69.9564C164.274 69.4962 164.921 69.2662 165.726 69.2662ZM181.692 91.1379C178.557 91.1379 176.026 90.5196 174.099 89.2829C173.179 88.7365 172.719 87.96 172.719 86.9534C172.719 86.3782 172.877 85.918 173.193 85.5729C173.51 85.199 173.898 85.0121 174.358 85.0121C174.847 85.0121 175.523 85.2422 176.386 85.7023C177.306 86.1337 178.14 86.4645 178.888 86.6945C179.664 86.9246 180.642 87.0396 181.821 87.0396C183.029 87.0396 183.964 86.8383 184.625 86.4357C185.316 86.0331 185.661 85.4722 185.661 84.7532C185.661 84.2643 185.517 83.8761 185.229 83.5885C184.971 83.3009 184.482 83.042 183.763 82.812C183.072 82.5531 182.008 82.2655 180.57 81.9492C178.011 81.4315 176.17 80.6981 175.048 79.7491C173.956 78.8 173.409 77.4914 173.409 75.8234C173.409 74.5579 173.783 73.4219 174.531 72.4153C175.279 71.38 176.3 70.5891 177.594 70.0427C178.917 69.4675 180.412 69.1799 182.08 69.1799C183.288 69.1799 184.453 69.3381 185.575 69.6544C186.696 69.942 187.703 70.3734 188.594 70.9486C189.515 71.5238 189.975 72.2859 189.975 73.235C189.975 73.8102 189.817 74.2991 189.5 74.7017C189.184 75.0756 188.796 75.2625 188.335 75.2625C188.019 75.2625 187.703 75.205 187.386 75.09C187.099 74.9462 186.725 74.7449 186.265 74.486C185.431 74.0546 184.712 73.7383 184.108 73.537C183.504 73.3069 182.756 73.1919 181.865 73.1919C180.8 73.1919 179.952 73.4075 179.319 73.8389C178.715 74.2703 178.413 74.8599 178.413 75.6077C178.413 76.3267 178.73 76.8731 179.362 77.247C179.995 77.6208 181.217 77.9947 183.029 78.3686C184.956 78.7712 186.466 79.2314 187.559 79.7491C188.652 80.2667 189.428 80.9138 189.888 81.6903C190.377 82.4669 190.622 83.4591 190.622 84.667C190.622 86.6226 189.802 88.19 188.163 89.3692C186.552 90.5483 184.395 91.1379 181.692 91.1379Z" fill="#6AB04C"/>
</svg>
